{"title":"Hostel.Part.III.2011.DvDRip.XviD.Ac3.Feel-Free","uid":6926326,"size":1016509995,"categoryP":"video","categoryS":"movies","magnet":"?xt=urn:btih:4eb94e6234da546dd81396056c9573702165e49e&amp;dn=Hostel.Part.III.2011.DvDRip.XviD.Ac3.Feel-Free&amp;tr=udp%3A%2F%2Ftracker.openbittorrent.com%3A80&amp;tr=udp%3A%2F%2Fopen.demonii.com%3A1337&amp;tr=udp%3A%2F%2Ftracker.coppersurfer.tk%3A6969&amp;tr=udp%3A%2F%2Fexodus.desync.com%3A6969","seeders":0,"leechers":1,"uploader":"rcbcsk","files":8,"time":1325517844,"description":"Genre:Horror | Mystery | Thriller\nLanguage:English\nIMDb:http://www.imdb.com/title/tt1255916/\nSource:DVD Thanks!\n\nFormat : AVI\nFormat/Info : Audio Video Interleave\nFile size : 968 MiB\nDuration : 1h 27mn\nOverall bit rate : 1 542 Kbps\n\nVideo\nID : 0\nFormat : MPEG-4 Visual\nFormat profile : Advanced Simple@L5\nFormat settings, BVOP : Yes\nFormat settings, QPel : No\nFormat settings, GMC : No warppoints\nFormat settings, Matrix : Default (H.263)\nCodec ID : XVID\nCodec ID/Hint : XviD\nDuration : 1h 27mn\nBit rate : 1 085 Kbps\nWidth : 640 pixels\nHeight : 360 pixels\nDisplay aspect ratio : 16:9\nFrame rate : 23.976 fps\nColor space : YUV\nChroma subsampling : 4:2:0\nBit depth : 8 bits\nScan type : Progressive\nBits/(Pixel*Frame) : 0.196\nStream size : 681 MiB (70%)\nWriting library : XviD 1.2.1 (UTC 2008-12-04)\n\nAudio\nID : 1\nFormat : AC-3\nFormat/Info : Audio Coding 3\nMode extension : CM (complete main)\nCodec ID : 2000\nDuration : 1h 27mn\nBit rate mode : Constant\nBit rate : 448 Kbps\nChannel(s) : 6 channels\nChannel positions : Front: L C R, Side: L R, LFE\nSampling rate : 48.0 KHz\nBit depth : 16 bits\nStream size : 281 MiB (29%)\nAlignment : Aligned on interleaves\nInterleave, duration : 42 ms (1.00 video frame)\nInterleave, preload duration : 512 ms\n\n\nPlot:\nWhile attending a bachelor party in Las Vegas, four friends are enticed by two sexy escorts to join them at a private party way off the Strip.\n\nScreens\n &lt;a href=&quot;\nhttp://img820.imageshack.us/img820/3545/vlcsnap00001sl.png&quot; rel=&quot;nofollow&quot; target=&quot;_NEW&quot;&gt;\nhttp://img820.imageshack.us/img820/3545/vlcsnap00001sl.png&lt;/a&gt;\n &lt;a href=&quot;\nhttp://img249.imageshack.us/img249/3213/vlcsnap00002fo.png&quot; rel=&quot;nofollow&quot; target=&quot;_NEW&quot;&gt;\nhttp://img249.imageshack.us/img249/3213/vlcsnap00002fo.png&lt;/a&gt;\n &lt;a href=&quot;\nhttp://img803.imageshack.us/img803/7007/vlcsnap00003rr.png&quot; rel=&quot;nofollow&quot; target=&quot;_NEW&quot;&gt;\nhttp://img803.imageshack.us/img803/7007/vlcsnap00003rr.png&lt;/a&gt;\n &lt;a href=&quot;\nhttp://img641.imageshack.us/img641/7201/vlcsnap00004n.png&quot; rel=&quot;nofollow&quot; target=&quot;_NEW&quot;&gt;\nhttp://img641.imageshack.us/img641/7201/vlcsnap00004n.png&lt;/a&gt;","torrent":{"xt":"urn:btih:4eb94e6234da546dd81396056c9573702165e49e","amp;dn":"Hostel.Part.III.2011.DvDRip.XviD.Ac3.Feel-Free","amp;tr":["udp%3A%2F%2Ftracker.openbittorrent.com%3A80","udp%3A%2F%2Fopen.demonii.com%3A1337","udp%3A%2F%2Ftracker.coppersurfer.tk%3A6969","udp%3A%2F%2Fexodus.desync.com%3A6969"],"infoHash":"4eb94e6234da546dd81396056c9573702165e49e","infoHashBuffer":{"type":"Buffer","data":[78,185,78,98,52,218,84,109,216,19,150,5,108,149,115,112,33,101,228,158]},"announce":[],"urlList":[]}}